<?xml version="1.0" encoding="UTF-8" ?>
<svg version="1.1" width="16" height="16" xmlns="http://www.w3.org/2000/svg" shape-rendering="crispEdges">
<rect x="0" y="0" width="14" height="2" fill="#7E7E7E" />
<rect x="14" y="0" width="1" height="15" fill="#5A5A5A" />
<rect x="15" y="0" width="1" height="9" fill="#2F2F2F" />
<rect x="0" y="2" width="2" height="12" fill="#7E7E7E" />
<rect x="2" y="2" width="9" height="1" fill="#B9B9B9" />
<rect x="11" y="2" width="1" height="10" fill="#A3A3A3" />
<rect x="12" y="2" width="1" height="11" fill="#949494" />
<rect x="13" y="2" width="1" height="12" fill="#7E7E7E" />
<rect x="2" y="3" width="1" height="8" fill="#B9B9B9" />
<rect x="3" y="3" width="6" height="1" fill="#F4F4F4" />
<rect x="9" y="3" width="1" height="1" fill="#CFCFCF" />
<rect x="10" y="3" width="1" height="8" fill="#B9B9B9" />
<rect x="3" y="4" width="1" height="2" fill="#F4F4F4" />
<rect x="4" y="4" width="6" height="2" fill="#BBBBBB" />
<rect x="3" y="6" width="1" height="4" fill="#CFCFCF" />
<rect x="4" y="6" width="2" height="2" fill="#BBBBBB" />
<rect x="6" y="6" width="4" height="1" fill="#B9B9B9" />
<rect x="6" y="7" width="1" height="3" fill="#BBBBBB" />
<rect x="7" y="7" width="3" height="4" fill="#B9B9B9" />
<rect x="4" y="8" width="1" height="2" fill="#BBBBBB" />
<rect x="5" y="8" width="1" height="1" fill="#B9B9B9" />
<rect x="5" y="9" width="1" height="1" fill="#BBBBBB" />
<rect x="15" y="9" width="1" height="4" fill="#212121" />
<rect x="3" y="10" width="4" height="1" fill="#B9B9B9" />
<rect x="2" y="11" width="9" height="1" fill="#A3A3A3" />
<rect x="2" y="12" width="10" height="1" fill="#949494" />
<rect x="2" y="13" width="11" height="1" fill="#7E7E7E" />
<rect x="15" y="13" width="1" height="3" fill="#060606" />
<rect x="0" y="14" width="14" height="1" fill="#5A5A5A" />
<rect x="0" y="15" width="9" height="1" fill="#2F2F2F" />
<rect x="9" y="15" width="4" height="1" fill="#212121" />
<rect x="13" y="15" width="2" height="1" fill="#060606" />
</svg>